# xmcd
#
# Track frame offsets:
#	150
#	12116
#	25493
#	39972
#	51163
#	64262
#	80155
#	93579
#	105054
#	117287
#	132711
#	147197
#	162411
#	176628
#	190337
#	203457
#	216898
#	228647
#
# Disc length: 3247 seconds
# Revision: 0
# Processed by: cddbd v1.5.2PL0 Copyright (c) Steve Scherf et al.
# Submitted via: dBpowerAMP V12.0
#
DISCID=fd0cad12
DTITLE=Maiara and Maraisa - Ao Vivo em Goiânia
DYEAR=2016
DGENRE=Sertanejo
TTITLE0=Show Completo
TTITLE1=Quase um Casal
TTITLE2=Você Se Transformou
TTITLE3=Mexidinho
TTITLE4=10%
TTITLE5=Se Olha no Espelho
TTITLE6=No Dia do Seu Casamento
TTITLE7=Fala a Verdade
TTITLE8=Te Procurava de Novo
TTITLE9=Pessoa Errada
TTITLE10=Sem Tirar a Roupa
TTITLE11=Dois Idiotas
TTITLE12=Motel
TTITLE13=Encontro Com o Passado
TTITLE14=Medo Bobo
TTITLE15=Luz de Velas
TTITLE16=Turma do A A
TTITLE17=É Rolo
EXTD=
EXTT0=
EXTT1=
EXTT2=
EXTT3=
EXTT4=
EXTT5=
EXTT6=
EXTT7=
EXTT8=
EXTT9=
EXTT10=
EXTT11=
EXTT12=
EXTT13=
EXTT14=
EXTT15=
EXTT16=
EXTT17=
PLAYORDER=
